<?xml version="1.0" encoding="utf-8"?>
<svg version="1.1" xmlns:xlink="http://www.w3.org/1999/xlink" width="21px" height="24px" xmlns="http://www.w3.org/2000/svg">
  <g transform="matrix(1 0 0 1 -840 -322 )">
    <path d="M 0 22.5  L 0 9  L 21 9  L 21 22.5  C 21 23.32875  20.2771153846154 24  19.3846153846154 24  L 1.61538461538462 24  C 0.722884615384616 24  0 23.32875  0 22.5  Z M 3.23076923076923 0  L 3.23076923076923 3  L 4.84615384615385 3  L 4.84615384615385 0  L 3.23076923076923 0  Z M 16.1538461538462 0  L 16.1538461538462 3  L 17.7692307692308 3  L 17.7692307692308 0  L 16.1538461538462 0  Z M 17.7692307692308 3  L 20.1923076923077 3  C 20.6389615384615 3  21 3.33675  21 3.75  L 21 7.5  L 0 7.5  L 0 3.75  C 0 3.33675  0.361038461538462 3  0.807692307692308 3  L 3.23076923076923 3  L 3.23076923076923 6  L 4.84615384615385 6  L 4.84615384615385 3  L 16.1538461538462 3  L 16.1538461538462 6  L 17.7692307692308 6  L 17.7692307692308 3  Z M 8.07692307692308 10.5  L 8.07692307692308 13.50075  L 12.9230769230769 13.5  L 12.9230769230769 10.5  L 8.07692307692308 10.5  Z M 14.5384615384615 10.5  L 14.5384615384615 13.5  L 19.3846153846154 13.5  L 19.3846153846154 10.5  L 14.5384615384615 10.5  Z M 14.5384615384615 15  L 14.5384615384615 18.00075  L 19.3846153846154 18.00075  L 19.3846153846154 15  L 14.5384615384615 15  Z M 1.61538461538462 19.5  L 1.61538461538462 22.5  L 6.46153846153846 22.5  L 6.46153846153846 19.5  L 1.61538461538462 19.5  Z M 1.61538461538462 15  L 1.61538461538462 18.00075  L 6.46153846153846 18.00075  L 6.46153846153846 15  L 1.61538461538462 15  Z M 1.61538461538462 10.5  L 1.61538461538462 13.5  L 6.46153846153846 13.50075  L 6.46153846153846 10.5  L 1.61538461538462 10.5  Z M 14.5384615384615 19.5  L 14.5384615384615 22.5  L 19.3846153846154 22.5  L 19.3846153846154 19.5  L 14.5384615384615 19.5  Z M 8.07692307692308 15  L 8.07692307692308 18.00075  L 12.9230769230769 18.00075  L 12.9230769230769 15  L 8.07692307692308 15  Z M 8.07692307692308 19.5  L 8.07692307692308 22.5  L 12.9230769230769 22.5  L 12.9230769230769 19.5  L 8.07692307692308 19.5  Z " fill-rule="nonzero" fill="#2d373e" stroke="none" transform="matrix(1 0 0 1 840 322 )" />
  </g>
</svg>