<?xml version="1.0" encoding="utf-8"?>
<svg version="1.1" xmlns:xlink="http://www.w3.org/1999/xlink" width="12px" height="12px" viewBox="271 454.5  12 12" xmlns="http://www.w3.org/2000/svg">
  <path d="M 277 454.5  C 280.36 454.5  283 457.14  283 460.5  C 283 463.86  280.36 466.5  277 466.5  C 273.64 466.5  271 463.86  271 460.5  C 271 457.14  273.64 454.5  277 454.5  Z " fill-rule="nonzero" fill="#ffffff" stroke="none" />
  <path d="M 277 455  C 280.08 455  282.5 457.42  282.5 460.5  C 282.5 463.58  280.08 466  277 466  C 273.92 466  271.5 463.58  271.5 460.5  C 271.5 457.42  273.92 455  277 455  Z " stroke-width="1" stroke="#797979" fill="none" />
  <path d="M 277 463.5  C 275.32 463.5  274 462.18  274 460.5  C 274 458.82  275.32 457.5  277 457.5  C 278.68 457.5  280 458.82  280 460.5  C 280 462.18  278.68 463.5  277 463.5  " fill-rule="nonzero" fill="#797979" stroke="none" />
</svg>